<mxfile host="app.diagrams.net" agent="Mozilla/5.0 (Windows NT 10.0; Win64; x64) AppleWebKit/537.36 (KHTML, like Gecko) Chrome/131.0.0.0 Safari/537.36" version="25.0.3">
  <diagram name="Page-1" id="iJOU__rofpa2E9_-jlgj">
    <mxGraphModel dx="1669" dy="426" grid="1" gridSize="10" guides="1" tooltips="1" connect="1" arrows="1" fold="1" page="1" pageScale="1" pageWidth="850" pageHeight="1100" math="0" shadow="0">
      <root>
        <mxCell id="0" />
        <mxCell id="1" parent="0" />
        <mxCell id="_vajQd3rNp_9IX060_1k-9" style="edgeStyle=orthogonalEdgeStyle;rounded=0;orthogonalLoop=1;jettySize=auto;html=1;entryX=0.5;entryY=0;entryDx=0;entryDy=0;" edge="1" parent="1" source="_vajQd3rNp_9IX060_1k-1" target="_vajQd3rNp_9IX060_1k-4">
          <mxGeometry relative="1" as="geometry" />
        </mxCell>
        <mxCell id="_vajQd3rNp_9IX060_1k-1" value="&lt;font style=&quot;font-size: 24px;&quot;&gt;start&lt;/font&gt;" style="strokeWidth=2;html=1;shape=mxgraph.flowchart.start_1;whiteSpace=wrap;" vertex="1" parent="1">
          <mxGeometry x="-700" y="60" width="100" height="60" as="geometry" />
        </mxCell>
        <mxCell id="_vajQd3rNp_9IX060_1k-2" value="&lt;font style=&quot;font-size: 24px;&quot;&gt;end&lt;/font&gt;" style="strokeWidth=2;html=1;shape=mxgraph.flowchart.start_1;whiteSpace=wrap;" vertex="1" parent="1">
          <mxGeometry x="-700" y="1000" width="100" height="60" as="geometry" />
        </mxCell>
        <mxCell id="_vajQd3rNp_9IX060_1k-11" style="edgeStyle=orthogonalEdgeStyle;rounded=0;orthogonalLoop=1;jettySize=auto;html=1;entryX=0.5;entryY=0;entryDx=0;entryDy=0;" edge="1" parent="1" source="_vajQd3rNp_9IX060_1k-3" target="_vajQd3rNp_9IX060_1k-10">
          <mxGeometry relative="1" as="geometry" />
        </mxCell>
        <mxCell id="_vajQd3rNp_9IX060_1k-3" value="input personA.Name, personA.Age, personA.Sex, personA.Score" style="shape=parallelogram;perimeter=parallelogramPerimeter;whiteSpace=wrap;html=1;fixedSize=1;" vertex="1" parent="1">
          <mxGeometry x="-767.5" y="250" width="235" height="40" as="geometry" />
        </mxCell>
        <mxCell id="_vajQd3rNp_9IX060_1k-8" style="edgeStyle=orthogonalEdgeStyle;rounded=0;orthogonalLoop=1;jettySize=auto;html=1;" edge="1" parent="1" source="_vajQd3rNp_9IX060_1k-4" target="_vajQd3rNp_9IX060_1k-3">
          <mxGeometry relative="1" as="geometry" />
        </mxCell>
        <mxCell id="_vajQd3rNp_9IX060_1k-4" value="Person personA, personB" style="rounded=1;whiteSpace=wrap;html=1;absoluteArcSize=1;arcSize=14;strokeWidth=2;" vertex="1" parent="1">
          <mxGeometry x="-740" y="170" width="180" height="40" as="geometry" />
        </mxCell>
        <mxCell id="_vajQd3rNp_9IX060_1k-7" value="Person = { Name, Age, Sex, Score}" style="strokeWidth=2;html=1;shape=mxgraph.flowchart.start_1;whiteSpace=wrap;" vertex="1" parent="1">
          <mxGeometry x="-380" y="60" width="210" height="60" as="geometry" />
        </mxCell>
        <mxCell id="_vajQd3rNp_9IX060_1k-20" style="edgeStyle=orthogonalEdgeStyle;rounded=0;orthogonalLoop=1;jettySize=auto;html=1;entryX=0.5;entryY=0;entryDx=0;entryDy=0;" edge="1" parent="1" source="_vajQd3rNp_9IX060_1k-10" target="_vajQd3rNp_9IX060_1k-12">
          <mxGeometry relative="1" as="geometry" />
        </mxCell>
        <mxCell id="_vajQd3rNp_9IX060_1k-10" value="input personB.Name, personB.Age, personB.Sex, personB.Score" style="shape=parallelogram;perimeter=parallelogramPerimeter;whiteSpace=wrap;html=1;fixedSize=1;" vertex="1" parent="1">
          <mxGeometry x="-767.5" y="320" width="235" height="40" as="geometry" />
        </mxCell>
        <mxCell id="_vajQd3rNp_9IX060_1k-21" style="edgeStyle=orthogonalEdgeStyle;rounded=0;orthogonalLoop=1;jettySize=auto;html=1;" edge="1" parent="1" source="_vajQd3rNp_9IX060_1k-12" target="_vajQd3rNp_9IX060_1k-13">
          <mxGeometry relative="1" as="geometry" />
        </mxCell>
        <mxCell id="_vajQd3rNp_9IX060_1k-12" value="output&lt;div&gt;&quot;--| Person A Information |--&lt;/div&gt;" style="shape=parallelogram;perimeter=parallelogramPerimeter;whiteSpace=wrap;html=1;fixedSize=1;" vertex="1" parent="1">
          <mxGeometry x="-767.5" y="400" width="235" height="40" as="geometry" />
        </mxCell>
        <mxCell id="_vajQd3rNp_9IX060_1k-22" style="edgeStyle=orthogonalEdgeStyle;rounded=0;orthogonalLoop=1;jettySize=auto;html=1;exitX=0.5;exitY=1;exitDx=0;exitDy=0;entryX=0.5;entryY=0;entryDx=0;entryDy=0;" edge="1" parent="1" source="_vajQd3rNp_9IX060_1k-13" target="_vajQd3rNp_9IX060_1k-14">
          <mxGeometry relative="1" as="geometry" />
        </mxCell>
        <mxCell id="_vajQd3rNp_9IX060_1k-13" value="output&lt;div&gt;&quot;Name :&quot;, personA.Name, personA.Sex&lt;/div&gt;" style="shape=parallelogram;perimeter=parallelogramPerimeter;whiteSpace=wrap;html=1;fixedSize=1;" vertex="1" parent="1">
          <mxGeometry x="-773.75" y="470" width="247.5" height="40" as="geometry" />
        </mxCell>
        <mxCell id="_vajQd3rNp_9IX060_1k-23" style="edgeStyle=orthogonalEdgeStyle;rounded=0;orthogonalLoop=1;jettySize=auto;html=1;entryX=0.5;entryY=0;entryDx=0;entryDy=0;" edge="1" parent="1" source="_vajQd3rNp_9IX060_1k-14" target="_vajQd3rNp_9IX060_1k-15">
          <mxGeometry relative="1" as="geometry" />
        </mxCell>
        <mxCell id="_vajQd3rNp_9IX060_1k-14" value="output&lt;div&gt;&quot;Age:&quot;, personA.Age, &quot;years old&quot;&lt;/div&gt;" style="shape=parallelogram;perimeter=parallelogramPerimeter;whiteSpace=wrap;html=1;fixedSize=1;" vertex="1" parent="1">
          <mxGeometry x="-773.75" y="540" width="247.5" height="40" as="geometry" />
        </mxCell>
        <mxCell id="_vajQd3rNp_9IX060_1k-24" style="edgeStyle=orthogonalEdgeStyle;rounded=0;orthogonalLoop=1;jettySize=auto;html=1;entryX=0.5;entryY=0;entryDx=0;entryDy=0;" edge="1" parent="1" source="_vajQd3rNp_9IX060_1k-15" target="_vajQd3rNp_9IX060_1k-19">
          <mxGeometry relative="1" as="geometry" />
        </mxCell>
        <mxCell id="_vajQd3rNp_9IX060_1k-15" value="output&lt;div&gt;&quot;Score:&quot;, personA.Score, &quot;points&quot;&lt;/div&gt;" style="shape=parallelogram;perimeter=parallelogramPerimeter;whiteSpace=wrap;html=1;fixedSize=1;" vertex="1" parent="1">
          <mxGeometry x="-773.75" y="610" width="247.5" height="40" as="geometry" />
        </mxCell>
        <mxCell id="_vajQd3rNp_9IX060_1k-26" style="edgeStyle=orthogonalEdgeStyle;rounded=0;orthogonalLoop=1;jettySize=auto;html=1;entryX=0.5;entryY=0;entryDx=0;entryDy=0;" edge="1" parent="1" source="_vajQd3rNp_9IX060_1k-16" target="_vajQd3rNp_9IX060_1k-17">
          <mxGeometry relative="1" as="geometry" />
        </mxCell>
        <mxCell id="_vajQd3rNp_9IX060_1k-16" value="output&lt;div&gt;&quot;Name :&quot;, personB.Name, personB.Sex&lt;/div&gt;" style="shape=parallelogram;perimeter=parallelogramPerimeter;whiteSpace=wrap;html=1;fixedSize=1;" vertex="1" parent="1">
          <mxGeometry x="-773.75" y="770" width="247.5" height="40" as="geometry" />
        </mxCell>
        <mxCell id="_vajQd3rNp_9IX060_1k-27" style="edgeStyle=orthogonalEdgeStyle;rounded=0;orthogonalLoop=1;jettySize=auto;html=1;entryX=0.5;entryY=0;entryDx=0;entryDy=0;" edge="1" parent="1" source="_vajQd3rNp_9IX060_1k-17" target="_vajQd3rNp_9IX060_1k-18">
          <mxGeometry relative="1" as="geometry" />
        </mxCell>
        <mxCell id="_vajQd3rNp_9IX060_1k-17" value="output&lt;div&gt;&quot;Age:&quot;, personB.Age, &quot;years old&quot;&lt;/div&gt;" style="shape=parallelogram;perimeter=parallelogramPerimeter;whiteSpace=wrap;html=1;fixedSize=1;" vertex="1" parent="1">
          <mxGeometry x="-773.75" y="850" width="247.5" height="40" as="geometry" />
        </mxCell>
        <mxCell id="_vajQd3rNp_9IX060_1k-18" value="output&lt;div&gt;&quot;Score:&quot;, personB.Score, &quot;points&quot;&lt;/div&gt;" style="shape=parallelogram;perimeter=parallelogramPerimeter;whiteSpace=wrap;html=1;fixedSize=1;" vertex="1" parent="1">
          <mxGeometry x="-773.75" y="920" width="247.5" height="40" as="geometry" />
        </mxCell>
        <mxCell id="_vajQd3rNp_9IX060_1k-25" style="edgeStyle=orthogonalEdgeStyle;rounded=0;orthogonalLoop=1;jettySize=auto;html=1;entryX=0.5;entryY=0;entryDx=0;entryDy=0;" edge="1" parent="1" source="_vajQd3rNp_9IX060_1k-19" target="_vajQd3rNp_9IX060_1k-16">
          <mxGeometry relative="1" as="geometry" />
        </mxCell>
        <mxCell id="_vajQd3rNp_9IX060_1k-19" value="output&lt;div&gt;&quot;--| Person B Information |--&lt;/div&gt;" style="shape=parallelogram;perimeter=parallelogramPerimeter;whiteSpace=wrap;html=1;fixedSize=1;" vertex="1" parent="1">
          <mxGeometry x="-767.5" y="690" width="235" height="40" as="geometry" />
        </mxCell>
        <mxCell id="_vajQd3rNp_9IX060_1k-28" style="edgeStyle=orthogonalEdgeStyle;rounded=0;orthogonalLoop=1;jettySize=auto;html=1;entryX=0.5;entryY=0;entryDx=0;entryDy=0;entryPerimeter=0;" edge="1" parent="1" source="_vajQd3rNp_9IX060_1k-18" target="_vajQd3rNp_9IX060_1k-2">
          <mxGeometry relative="1" as="geometry" />
        </mxCell>
      </root>
    </mxGraphModel>
  </diagram>
</mxfile>
